<svg xmlns="http://www.w3.org/2000/svg" xmlns:xlink="http://www.w3.org/1999/xlink" data-name="Layer 1" width="363.65235" height="249.98975" viewBox="0 0 722.73047 493.99795"><path d="M489.746,676.20016a2.80741,2.80741,0,0,1-2.03464-4.86593l.19237-.76476q-.038-.09187-.07644-.18358a7.53909,7.53909,0,0,0-13.90673.05167c-2.27452,5.4781-5.17038,10.96553-5.88341,16.75771a22.30361,22.30361,0,0,0,.39153,7.67061,89.41943,89.41943,0,0,1-8.13413-37.13874,86.307,86.307,0,0,1,.53535-9.6283q.44349-3.93126,1.23055-7.80653a90.45553,90.45553,0,0,1,17.93812-38.3373,24.07272,24.07272,0,0,0,10.0118-10.38735,18.36254,18.36254,0,0,0,1.67-5.0179c-.48738.06393-1.83778-7.3591-1.47017-7.81452-.67924-1.03072-1.895-1.54307-2.63681-2.54886-3.68943-5.0021-8.77253-4.12871-11.42612,2.66876-5.6687,2.861-5.72357,7.60577-2.24528,12.16916,2.2129,2.90325,2.517,6.83168,4.45862,9.93984-.19981.25572-.40756.50344-.6073.75916a91.04013,91.04013,0,0,0-9.50223,15.05379,37.84594,37.84594,0,0,0-2.25945-17.57871c-2.16269-5.21725-6.21632-9.61122-9.786-14.12153-4.2878-5.41757-13.08033-3.05323-13.83575,3.81439q-.011.09973-.02142.19942.79533.44865,1.55706.95246a3.808,3.808,0,0,1-1.53532,6.92993l-.07765.012a37.89,37.89,0,0,0,.99876,5.66516c-4.57949,17.71008,5.30731,24.16046,19.42432,24.45023.31163.15978.61531.31957.92694.47144a92.92532,92.92532,0,0,0-5.00193,23.53931,88.13664,88.13664,0,0,0,.06393,14.23066l-.024-.16778a23.28922,23.28922,0,0,0-7.95036-13.44764c-6.11822-5.02589-14.76211-6.87666-21.36259-10.9165a4.37072,4.37072,0,0,0-6.69422,4.252q.01328.0882.027.17642a25.57824,25.57824,0,0,1,2.86849,1.38226q.79532.44877,1.55706.95246a3.8081,3.8081,0,0,1-1.53533,6.93l-.07772.01193c-.05591.008-.10387.016-.15972.024a37.92258,37.92258,0,0,0,6.97545,10.92264c2.86344,15.46022,15.16195,16.92705,28.31753,12.42488h.008a92.89671,92.89671,0,0,0,6.24043,18.21781h22.2928c.08-.24769.15184-.5034.22379-.75113a25.329,25.329,0,0,1-6.16856-.36745c1.654-2.02957,3.308-4.07513,4.962-6.10463a1.38254,1.38254,0,0,0,.10388-.11987c.839-1.03866,1.68595-2.06945,2.52491-3.10816l.00045-.00126a37.1011,37.1011,0,0,0-1.08711-9.45126Z" transform="translate(-238.63477 -203.00102)" fill="#f2f2f2"/><polygon points="79.642 439.481 85.793 445.982 114.354 424.822 105.276 415.227 79.642 439.481" fill="#a0616a"/><path d="M328.35632,646.078l-6.96353-6.54152-1.71-1.60238-17.728,14.17343,4.61159,4.8742,5.4282-3.48117-2.49372,6.58314,12.22676,12.92278a4.00014,4.00014,0,0,0,6.86063-3.35611l-2.63877-17.07148,4.64993-4.39748Z" transform="translate(-238.63477 -203.00102)" fill="#2f2e41"/><path d="M453.459,405.78081l-1.95019,21.29s-3.404,16.04008-1.047,14.74-1.869,4.55144-.756,9.62568-9.50711,42.91409-4.697,38.99417-2.77979,23.16016-7.58008,36.52c-1.46973,4.12988-2.98,8.31006-4.5,12.46-.2998.84033-.6001,1.66992-.90967,2.51025-1.97021,5.39991-3.94043,10.71973-5.83008,15.73975-.27.7002-.53027,1.3999-.79,2.09033-.01026.01953-.01026.03955-.02.03955-6.22022,16.37012-11.5503,29.25-13.68018,31.38037-1.10986,1.10987-18.71973,13.83008-36.46973,26.56983-18.62988,13.37012-37.41015,26.77-37.41015,26.77l-17.54-18.3999s.41992-.12012,1.21-.35987c1.46-.42041,4.16016-1.21045,7.70019-2.26025,14.75977-4.3501-3.99023-11.12012,9.41016-15.96,3.77979-1.35987,6.29981-2.41992,6.86963-2.98,3.33008-3.25,7.80029-11,9.91016-7.75s11.68017-20.8999,14.43994-23.29c1.48-1.29,6.31006-7.31983,10.45019-12.62012,3.55957-4.56006,6.61963-8.58984,6.61963-8.58984s.06006-2.16016.1499-5.6001c.13038-5.08984.32032-13,.52051-20.91992-.01025-.01026-.01025-.01026,0-.01026.06983-2.98.13965-5.96.21-8.79.04981-2.18994.09961-4.2998.14991-6.25.12988-5.83984.21972-10.25976.21972-11.35986,0-3.60986,0-.7998,2.8501-2.98a12.88888,12.88888,0,0,0,1.21-1.08008,14.59188,14.59188,0,0,0,1.68018-1.79c.21-.4497-1.1001.16016-2.8003-.17968a5.08475,5.08475,0,0,1-2.46-1.26026c-3.58008-3.21972.28028-13.11963.28028-13.11963-8.14014-16.28027-7.54981-29.63037-3.74024-39.92041a51.20818,51.20818,0,0,1,13.21-19.34961,47.8025,47.8025,0,0,1,7.23047-5.67041l.25-1.34961,2.75-14.89013A33.18008,33.18008,0,0,1,413.149,395.711a31.58409,31.58409,0,0,1,15.25976-1.52,45.54775,45.54775,0,0,1,14.61035,4.73A54.06707,54.06707,0,0,1,453.459,405.78081Z" transform="translate(-238.63477 -203.00102)" fill="#2f2e41"/><polygon points="138.02 472.651 146.931 473.48 154.44 438.736 141.287 437.513 138.02 472.651" fill="#a0616a"/><path d="M402.3189,689.27055l-13.24024-11.08984.6001-6.37988-3.07959-.1001-9.54-.31006h-.01025l-2.33985-.08008-3.97021,22.34034,6.68994.61962,1.77-6.1997,2.47022,6.60009,3.54.33008,14.16993,1.31983c.12011.00976.25.02.37011.02a3.9726,3.9726,0,0,0,2.98-1.33985,3.91645,3.91645,0,0,0,1.00977-2.30029A3.99526,3.99526,0,0,0,402.3189,689.27055Z" transform="translate(-238.63477 -203.00102)" fill="#2f2e41"/><path d="M426.189,557.66069c-3.39013,18.4502-17.74023,61.71-26.41992,87.03027-3.95019,11.56983-6.71,19.39991-6.71,19.39991l-4.5-1.41993h-.01025l-7.60987-2.40039-2.77-.87988h-.01026l-3.35986-1.06982s.39013-20.66016.43017-40.58008c.02979-8.3501-.01025-16.58008-.16992-23.1001-.18017-7.10986-.49023-12.19971-1-13.21-2.11035-4.14014,1.41992-4.58008,5.1499-5.62012,3.73975-1.0498.81983-2.62988-.63037-5.98974-.97949-2.24024.9502-5.23,2.32032-6.93018a16.711,16.711,0,0,1,1.21-1.37012s-.66016-.23-1.83985-.62988c3.55957-4.56006,6.61963-8.58984,6.61963-8.58984s.06006-2.16016.1499-5.6001c.13038-5.08984.32032-13,.52051-20.91992-.01025-.01026-.01025-.01026,0-.01026.06983-2.98.13965-5.96.21-8.79,5.71973,4.39014,11.27979,8.69043,16.31983,12.67042a.05086.05086,0,0,1,.02.04c12.10986,9.56983,21.20019,17.25,22.48,19.68995C427.169,550.48051,426.9688,553.42094,426.189,557.66069Z" transform="translate(-238.63477 -203.00102)" fill="#2f2e41"/><path d="M960.36523,696.999H239.63477a1,1,0,0,1,0-2H960.36523a1,1,0,0,1,0,2Z" transform="translate(-238.63477 -203.00102)" fill="#e6e6e6"/><polygon points="164.915 166.791 166.789 184.173 165.687 206.965 216.172 200.968 220.915 166.791 214.871 166.851 164.915 166.791" fill="#ffb6b6"/><path d="M446.49277,313.65025l-19-15h0l-9.97368-.5799-14.79926,9.48075L399.096,326.03849l-8.57038,20.81821L403.096,403.03849s1.179,4.03151-1.91051,4.51576-2.71906,6.42685-2.71906,6.42685.62914,5.15031-2.37086,5.60385-10.99957.45354-3.99957,9.45354S454.46173,403.999,454.46173,403.999l8.04148-42.19418s15.59514-20.94623-1.19963-32.94249Z" transform="translate(-238.63477 -203.00102)" fill="#e6e6e6"/><path d="M363.54889,441.20883a9.15746,9.15746,0,0,1,2.76343-13.76726l23.899-80.20474,14.94386,7.5236-26.02651,76.8754a9.20709,9.20709,0,0,1-15.57979,9.573Z" transform="translate(-238.63477 -203.00102)" fill="#a0616a"/><path d="M406.15189,306.809s-4.27186-2.27032-7.19382,7.554c-2.33923,7.86509-21.32065,54.71295-21.56274,66.10293a7.194,7.194,0,0,0-5.69619,6.73344l23.46882,3.145c4.101-3.45891,5.17686-8.13061,3.59016-9.51717l5.09559-13.91706,21.25842-44.2794-15.8432-14.23548Z" transform="translate(-238.63477 -203.00102)" fill="#e6e6e6"/><path d="M531.553,414.84552a9.15747,9.15747,0,0,0-8.44523-11.21839L468.284,341.01386l-11.62967,13.87679,56.71129,58.06063a9.20709,9.20709,0,0,0,18.18747,1.89424Z" transform="translate(-238.63477 -203.00102)" fill="#a0616a"/><path d="M435.01937,312.08574s2.87-3.8944,9.753,3.7002c5.5104,6.08006,42.88422,40.11261,48.028,50.27783a7.194,7.194,0,0,1,8.04787,3.608L481.0474,382.65645c-5.19347-1.34533-8.1838-5.09237-7.35274-7.02873l-10.61282-10.34493-38.3162-30.732,8.12918-19.68686Z" transform="translate(-238.63477 -203.00102)" fill="#e6e6e6"/><path d="M400.24925,257.79764c-2.28311,5.68611-8.72413,16.86807-9.59656,22.96807l.39267-.38615a27.5393,27.5393,0,0,0,2.54529,3.63919,17.68893,17.68893,0,0,1,6.00683-4.13024,21.1744,21.1744,0,0,0-2.1089,8.12478c2.43073,7.61939,13.668,4.22629,20.252,3.39432,6.57486,7.52075,15.32232,9.48327,26.7771,5.15948,3.20367.32984,6.79.53,9.03491-1.363s.908-5.39871,2.11581-8.05026c8.60337-18.88694.6636-25.70122-6.08226-34.26526-1.48451-1.88464-1.47831-4.6971-3.28467-6.49523-2.50635-2.49246-6.34831-3.2591-9.89045-3.87321a5.36777,5.36777,0,0,0,4.7153-2.3334,4.84233,4.84233,0,0,0-.06416-5.05422c-1.26681-2.10021-3.89925-3.32152-6.4389-3.62661a24.44991,24.44991,0,0,0-7.45176.64056,13.33407,13.33407,0,0,0-4.51249,1.44232,3.69276,3.69276,0,0,0-1.92254,3.74277,4.78385,4.78385,0,0,0,2.82873,3.0489,12.52178,12.52178,0,0,0,3.198.87545,25.08754,25.08754,0,0,0-14.71541,2.57567C406.37091,246.85969,402.54018,252.11457,400.24925,257.79764Z" transform="translate(-238.63477 -203.00102)" fill="#2f2e41"/><circle cx="192.35345" cy="66.38236" r="20.29276" fill="#a0616a"/><path d="M411.46152,258.50274c1.17664,3.556,4.539,4.70186,7.64677,5.41652.9799.22839,1.96586.4412,2.96089.63058.3671-.459.75757-.90882,1.16536-1.334a17.68859,17.68859,0,0,1,6.00683-4.13022,20.84552,20.84552,0,0,0-1.9299,6.3713q2.81808.40887,5.66744.66828a6.40753,6.40753,0,0,0,7.52542-4.61736c1.72926,2.82788,3.774,5.49107,6.57022,6.61442a7.95152,7.95152,0,0,0,9.04534-2.7061,19.14764,19.14764,0,0,0,3.27816-7.43658c.79355-3.149,1.23429-6.77652-.32374-8.77445-1.24819-1.617-3.40126-1.646-5.388-1.50257a64.1208,64.1208,0,0,0-12.94717,2.34727l-.35753.80394c.72591-4.36079-.84862-8.55646-3.76184-10.04861-1.965-.99766-4.32915-.83037-6.62615-.628a30.19743,30.19743,0,0,0-8.65265,1.67335,16.62051,16.62051,0,0,0-7.84224,6.26338C411.45979,251.20965,410.44654,255.43175,411.46152,258.50274Z" transform="translate(-238.63477 -203.00102)" fill="#2f2e41"/><path d="M440.39072,239.53607c-.20021-.05911.31857.01682.13865.02165a1.6523,1.6523,0,0,0,.26557-.03719c.01486-.003.21687-.06744.08268-.02a1.6292,1.6292,0,0,0,.77409-.50518,6.74869,6.74869,0,0,0,1.10613-1.96875,7.07014,7.07014,0,0,1,1.52107-2.53621,1.74006,1.74006,0,0,1,2.77634.42379,4.05193,4.05193,0,0,1-.24771,2.81,8.72405,8.72405,0,0,1-1.282,2.48577A7.97831,7.97831,0,0,1,441.85894,242.9a8.34551,8.34551,0,0,1-5.24524.14989,1.26759,1.26759,0,0,1-.0506-2.31936l2.867-1.17353a1.25553,1.25553,0,1,1,1.01131,2.29841l-2.867,1.17354-.0506-2.31936a4.99358,4.99358,0,0,0,1.09743.18764,4.20372,4.20372,0,0,0,1.18869-.05012,5.21182,5.21182,0,0,0,1.0999-.26822,7.1738,7.1738,0,0,0,.66972-.28385q.11891-.05775.23569-.11992c-.00561.003.328-.19126.18167-.1a7.08084,7.08084,0,0,0,1.03918-.8095,2.85851,2.85851,0,0,0,.31171-.34683,6.6458,6.6458,0,0,0,.45352-.629,6.52178,6.52178,0,0,0,.666-1.47569,6.61133,6.61133,0,0,0,.18427-.66271,2.7192,2.7192,0,0,1,.06655-.36467c.10639-.2857-.0202.16682.10219.29061l.52848.38943a.69006.69006,0,0,0,.59068-.09457q.0939-.13217-.04106.04385a4.09677,4.09677,0,0,0-.28692.43291,11.85131,11.85131,0,0,0-.51334,1.08773,11.936,11.936,0,0,1-1.18959,2.24665,4.0424,4.0424,0,0,1-4.42792,1.69309,1.26566,1.26566,0,0,1-.7151-1.62522A1.28122,1.28122,0,0,1,440.39072,239.53607Z" transform="translate(-238.63477 -203.00102)" fill="#2f2e41"/></svg>